<svg width="25" height="24" viewBox="0 0 25 24" fill="none" xmlns="http://www.w3.org/2000/svg">
<g clip-path="url(#clip0_266_6105)">
<path d="M24.875 12C24.875 5.37258 19.5024 0 12.875 0C6.24758 0 0.875 5.37258 0.875 12C0.875 17.9895 5.2632 22.954 11 23.8542V15.4688H7.95312V12H11V9.35625C11 6.34875 12.7916 4.6875 15.5326 4.6875C16.8451 4.6875 18.2188 4.92188 18.2188 4.92188V7.875H16.7056C15.215 7.875 14.75 8.80008 14.75 9.75V12H18.0781L17.5461 15.4688H14.75V23.8542C20.4868 22.954 24.875 17.9895 24.875 12Z" fill="white"/>
</g>
<defs>
<clipPath id="clip0_266_6105">
<rect width="24" height="24" fill="white" transform="translate(0.875)"/>
</clipPath>
</defs>
</svg>
