<svg width="21" height="24" viewBox="0 0 21 24" fill="none" xmlns="http://www.w3.org/2000/svg">
<g clip-path="url(#clip0_563_1966)">
<path d="M17.291 19.0724H14.284V14.3634C14.284 13.2404 14.264 11.7954 12.72 11.7954C11.154 11.7954 10.914 13.0184 10.914 14.2824V19.0724H7.908V9.38839H10.795V10.7114H10.835C11.424 9.70539 12.518 9.10439 13.683 9.14739C16.731 9.14739 17.292 11.1524 17.292 13.7594L17.291 19.0724ZM4.515 8.06439C3.551 8.06439 2.77 7.28339 2.77 6.31939C2.77 5.35539 3.551 4.57439 4.515 4.57439C5.479 4.57439 6.26 5.35539 6.26 6.31939C6.26 7.28339 5.479 8.06439 4.515 8.06439ZM6.018 19.0724H3.008V9.38839H6.018V19.0724ZM18.79 1.78239H1.497C0.68 1.77339 0.01 2.42839 0 3.24539V20.6094C0.01 21.4274 0.68 22.0824 1.497 22.0734H18.79C19.609 22.0834 20.282 21.4284 20.293 20.6094V3.24439C20.281 2.42539 19.608 1.77039 18.79 1.78139" fill="#374151"/>
</g>
<defs>
<clipPath id="clip0_563_1966">
<rect width="20.25" height="24" fill="white"/>
</clipPath>
</defs>
</svg>
