<svg width="22" height="24" viewBox="0 0 22 24" fill="none" xmlns="http://www.w3.org/2000/svg">
<g clip-path="url(#clip0_266_6108)">
<path d="M18.166 19.0724H15.159V14.3634C15.159 13.2404 15.139 11.7954 13.595 11.7954C12.029 11.7954 11.789 13.0184 11.789 14.2824V19.0724H8.783V9.38839H11.67V10.7114H11.71C12.299 9.70539 13.393 9.10439 14.558 9.14739C17.606 9.14739 18.167 11.1524 18.167 13.7594L18.166 19.0724ZM5.39 8.06439C4.426 8.06439 3.645 7.28339 3.645 6.31939C3.645 5.35539 4.426 4.57439 5.39 4.57439C6.354 4.57439 7.135 5.35539 7.135 6.31939C7.135 7.28339 6.354 8.06439 5.39 8.06439ZM6.893 19.0724H3.883V9.38839H6.893V19.0724ZM19.665 1.78239H2.372C1.555 1.77339 0.885 2.42839 0.875 3.24539V20.6094C0.885 21.4274 1.555 22.0824 2.372 22.0734H19.665C20.484 22.0834 21.157 21.4284 21.168 20.6094V3.24439C21.156 2.42539 20.483 1.77039 19.665 1.78139" fill="white"/>
</g>
<defs>
<clipPath id="clip0_266_6108">
<rect width="20.25" height="24" fill="white" transform="translate(0.875)"/>
</clipPath>
</defs>
</svg>
