<svg width="16" height="16" viewBox="0 0 16 16" fill="none" xmlns="http://www.w3.org/2000/svg">
<path d="M8.00002 1.44141C5.20002 1.44141 2.66669 3.58807 2.66669 6.90807C2.66669 9.02807 4.30002 11.5214 7.56002 14.3947C7.81335 14.6147 8.19335 14.6147 8.44669 14.3947C11.7 11.5214 13.3334 9.02807 13.3334 6.90807C13.3334 3.58807 10.8 1.44141 8.00002 1.44141ZM8.00002 8.10807C7.26669 8.10807 6.66669 7.50807 6.66669 6.77474C6.66669 6.04141 7.26669 5.44141 8.00002 5.44141C8.73335 5.44141 9.33335 6.04141 9.33335 6.77474C9.33335 7.50807 8.73335 8.10807 8.00002 8.10807Z" fill="#374151"/>
</svg>
