<svg width="16" height="17" viewBox="0 0 16 17" fill="none" xmlns="http://www.w3.org/2000/svg">
<path d="M13.3333 3.16602H2.66665C1.93331 3.16602 1.33331 3.76602 1.33331 4.49935V12.4993C1.33331 13.2327 1.93331 13.8327 2.66665 13.8327H13.3333C14.0666 13.8327 14.6666 13.2327 14.6666 12.4993V4.49935C14.6666 3.76602 14.0666 3.16602 13.3333 3.16602ZM13.0666 5.99935L8.70665 8.72602C8.27331 8.99935 7.72665 8.99935 7.29331 8.72602L2.93331 5.99935C2.76665 5.89268 2.66665 5.71268 2.66665 5.51935C2.66665 5.07268 3.15331 4.80602 3.53331 5.03935L7.99998 7.83268L12.4666 5.03935C12.8466 4.80602 13.3333 5.07268 13.3333 5.51935C13.3333 5.71268 13.2333 5.89268 13.0666 5.99935Z" fill="#374151"/>
</svg>
