<svg width="16" height="17" viewBox="0 0 16 17" fill="none" xmlns="http://www.w3.org/2000/svg">
<path d="M12.8145 10.6784L11.1212 10.4851C10.7145 10.4384 10.3145 10.5784 10.0279 10.8651L8.8012 12.0917C6.91453 11.1317 5.36787 9.59172 4.40787 7.69839L5.6412 6.46505C5.92787 6.17839 6.06787 5.77839 6.0212 5.37172L5.82787 3.69172C5.74787 3.01839 5.1812 2.51172 4.5012 2.51172H3.34787C2.59453 2.51172 1.96787 3.13839 2.01453 3.89172C2.36787 9.58505 6.9212 14.1317 12.6079 14.4851C13.3612 14.5317 13.9879 13.9051 13.9879 13.1517V11.9984C13.9945 11.3251 13.4879 10.7584 12.8145 10.6784Z" fill="#374151"/>
</svg>
