<svg width="25" height="24" viewBox="0 0 25 24" fill="none" xmlns="http://www.w3.org/2000/svg">
<g clip-path="url(#clip0_266_6123)">
<path fill-rule="evenodd" clip-rule="evenodd" d="M20.5881 3.488C18.3421 1.24 15.3561 0.001 12.1751 0C5.62013 0 0.285129 5.334 0.282129 11.892C0.281129 13.988 0.829129 16.034 1.87013 17.838L0.182129 24L6.48613 22.346C8.22313 23.294 10.1791 23.793 12.1691 23.794H12.1741C18.7281 23.794 24.0641 18.459 24.0671 11.901C24.0691 8.724 22.8331 5.735 20.5881 3.488ZM12.1751 21.785H12.1711C10.3971 21.785 8.65813 21.308 7.14013 20.407L6.77913 20.193L3.03813 21.174L4.03713 17.526L3.80213 17.152C2.81213 15.578 2.29013 13.759 2.29113 11.892C2.29313 6.442 6.72813 2.008 12.1801 2.008C14.8201 2.008 17.3021 3.038 19.1681 4.906C21.0341 6.775 22.0611 9.258 22.0601 11.899C22.0571 17.351 17.6231 21.785 12.1751 21.785ZM17.5971 14.382C17.3001 14.233 15.8391 13.514 15.5661 13.415C15.2941 13.316 15.0961 13.266 14.8971 13.563C14.6981 13.86 14.1301 14.53 13.9561 14.729C13.7831 14.927 13.6091 14.952 13.3121 14.803C13.0151 14.654 12.0571 14.341 10.9221 13.328C10.0391 12.54 9.44213 11.567 9.26913 11.269C9.09613 10.971 9.25113 10.811 9.39913 10.663C9.53313 10.53 9.69613 10.316 9.84513 10.142C9.99513 9.97 10.0441 9.846 10.1441 9.647C10.2431 9.449 10.1941 9.275 10.1191 9.126C10.0441 8.978 9.45013 7.515 9.20313 6.92C8.96213 6.34 8.71713 6.419 8.53413 6.41C8.36113 6.401 8.16313 6.4 7.96413 6.4C7.76613 6.4 7.44413 6.474 7.17213 6.772C6.90013 7.07 6.13213 7.789 6.13213 9.251C6.13213 10.714 7.19713 12.127 7.34513 12.325C7.49313 12.523 9.44013 15.525 12.4211 16.812C13.1301 17.118 13.6841 17.301 14.1151 17.438C14.8271 17.664 15.4751 17.632 15.9871 17.556C16.5581 17.471 17.7451 16.837 17.9931 16.143C18.2411 15.449 18.2411 14.853 18.1661 14.73C18.0921 14.605 17.8941 14.531 17.5971 14.382Z" fill="white"/>
</g>
<defs>
<clipPath id="clip0_266_6123">
<rect width="24" height="24" fill="white" transform="translate(0.125)"/>
</clipPath>
</defs>
</svg>
