<svg width="25" height="24" viewBox="0 0 25 24" fill="none" xmlns="http://www.w3.org/2000/svg">
<g clip-path="url(#clip0_563_1971)">
<path d="M23.748 6.18687C23.472 5.14787 22.659 4.32888 21.626 4.05088C19.755 3.54688 12.25 3.54688 12.25 3.54688C12.25 3.54688 4.745 3.54688 2.873 4.05088C1.841 4.32888 1.028 5.14687 0.752 6.18687C0.25 8.07087 0.25 12.0009 0.25 12.0009C0.25 12.0009 0.25 15.9309 0.752 17.8149C1.028 18.8539 1.841 19.6729 2.874 19.9509C4.745 20.4549 12.25 20.4549 12.25 20.4549C12.25 20.4549 19.755 20.4549 21.627 19.9509C22.659 19.6729 23.472 18.8549 23.749 17.8149C24.25 15.9309 24.25 12.0009 24.25 12.0009C24.25 12.0009 24.25 8.07087 23.748 6.18687ZM9.796 15.5699V8.43187L16.068 12.0009L9.796 15.5699Z" fill="#374151"/>
</g>
<defs>
<clipPath id="clip0_563_1971">
<rect width="24" height="24" fill="white" transform="translate(0.25)"/>
</clipPath>
</defs>
</svg>
