<svg width="25" height="24" viewBox="0 0 25 24" fill="none" xmlns="http://www.w3.org/2000/svg">
<g clip-path="url(#clip0_266_6113)">
<path d="M23.623 6.18687C23.347 5.14787 22.534 4.32888 21.501 4.05088C19.63 3.54688 12.125 3.54688 12.125 3.54688C12.125 3.54688 4.62 3.54688 2.748 4.05088C1.716 4.32888 0.903 5.14687 0.627 6.18687C0.125 8.07087 0.125 12.0009 0.125 12.0009C0.125 12.0009 0.125 15.9309 0.627 17.8149C0.903 18.8539 1.716 19.6729 2.749 19.9509C4.62 20.4549 12.125 20.4549 12.125 20.4549C12.125 20.4549 19.63 20.4549 21.502 19.9509C22.534 19.6729 23.347 18.8549 23.624 17.8149C24.125 15.9309 24.125 12.0009 24.125 12.0009C24.125 12.0009 24.125 8.07087 23.623 6.18687ZM9.671 15.5699V8.43187L15.943 12.0009L9.671 15.5699Z" fill="white"/>
</g>
<defs>
<clipPath id="clip0_266_6113">
<rect width="24" height="24" fill="white" transform="translate(0.125)"/>
</clipPath>
</defs>
</svg>
